<svg width="1038" height="1108" viewBox="0 0 1038 1108" fill="none" xmlns="http://www.w3.org/2000/svg">
<path d="M229.395 111.372C243.574 107.822 266.393 102.133 280.658 93.5891C292.349 86.5867 307.732 81.4526 321.612 77.539C327.747 75.8089 331.963 74.331 320.029 85.9543C250.734 153.449 238.72 162.655 227.653 171.573C222.158 176.001 218.018 181.924 217.27 181.956C188.508 183.189 262.073 147.813 281.727 131.742C296.509 119.654 320.543 108.591 339.822 99.9942C356.282 92.6543 367.635 81.474 379.76 72.9089C395.937 61.4825 412.545 51.5336 423.965 42.9685C435.525 34.2984 446.784 30.832 450.719 30.1048C462.832 27.8664 421.313 62.0127 402.676 79.2498C389.655 91.2918 379.14 102.047 363.839 109.917C345.917 119.135 325.077 131.261 298.633 147.664C277.48 160.785 265.11 178.994 250.835 192.948C233.57 209.825 208.779 220.397 193.467 231.785C167.329 251.225 161.003 268.131 150.663 278.856C138.215 291.767 124.647 305.214 108.64 316.987C97.7531 324.994 87.5637 329.487 85.4036 331.637C74.7868 342.201 120.883 308.208 152.599 287.207C216.608 244.822 236.41 233.357 255.337 224.044C286.679 208.62 316.18 189.901 338.4 178.77C356.842 169.531 371.869 157.736 396.11 141.034C434.836 114.351 478.115 85.7512 499.49 71.1552C518.927 57.8828 537.268 41.5677 546.614 33.6656C554.998 26.5764 535.237 57.1367 507.681 88.6276C483.8 115.919 433.546 160.345 407.049 186.094C361.834 230.031 322.938 266.634 306.075 283.839C294.083 296.074 270.884 313.683 254.749 331.947C229.143 360.929 186.709 397.174 170.285 409.3C154.762 420.76 139.703 438.492 123.225 451.366C120.025 453.866 118.231 457.055 118.552 456.039C120.58 449.617 145.071 425.938 177.492 394.95C212.907 361.1 258.523 323.906 277.45 310.657C290.999 301.172 305.615 293.195 325.515 279.679C374.401 246.476 406.771 230.492 437.428 209.127C470.955 185.762 494.454 170.611 514.834 159.886C532.479 150.601 543.727 132.116 565.07 112.869C578.623 100.646 587.932 94.2842 591.514 93.8993C614.137 91.4681 551.768 142.552 537.386 162.292C522.741 182.392 476.96 215.265 414.277 264.442C384.496 287.807 355.038 312.999 323.718 333.636C287.447 357.537 277.942 368.688 262.244 385.401C249.628 398.833 230.935 415.694 217.323 428.9C208.508 437.452 200.204 444.972 200.856 442.534C206.709 420.656 233.63 410.112 259.806 386.043C319.212 331.417 364.106 296.745 373.313 289.645C406.159 264.314 427.515 261.116 444.261 254.326C460.132 247.891 488.679 228.396 559.51 179.657C621.285 137.149 644.22 129.956 655.961 121.765C661.122 118.164 665.584 117.103 635.302 145.664C605.019 174.225 540.091 232.801 503.468 267.564C447.759 320.443 441.16 336.566 427.269 354.391C421.434 361.88 406.322 379.98 380.006 407.012C332.091 456.231 309.978 488.449 306.759 489.904C300.177 492.878 319.837 465.074 369.378 418.314C408.118 381.748 481.023 326.386 520.213 295.526C571.29 255.305 597.064 243.366 617.851 230.459C634.157 220.335 657.671 197.771 690.905 169.167C701.168 160.334 665.028 195.44 591.172 257.973C523.859 314.964 398.045 425.66 330.851 485.199C263.656 544.737 259.421 550.383 256.181 554.703C250.824 561.846 270.521 540.054 343.896 468.047C393.806 419.069 475.848 351.579 538.466 300.071C601.084 248.563 643.428 216.805 684.297 188.447C725.166 160.089 763.275 136.094 779.379 127.261C795.483 118.429 788.425 125.486 704.336 197.931C620.246 270.376 459.338 407.995 364.801 490.887C270.264 573.779 246.975 597.775 236.742 606.96C226.508 616.145 230.037 609.793 310.192 541.946C390.347 474.099 547.02 344.949 642.904 268.537C738.788 192.125 769.135 172.364 690.905 243.697C612.675 315.03 424.949 478.056 323.654 566.979C222.36 655.902 213.185 665.782 271.269 613.707C329.354 561.632 454.975 447.303 536.627 376.055C618.278 304.808 652.154 280.107 671.369 266.324C690.584 252.54 694.113 250.423 637.355 301.91C580.596 353.397 463.444 458.552 387.566 529.66C311.689 600.769 280.636 634.644 264.287 654.212C247.937 673.78 247.231 678.015 246.868 681.96C246.504 685.906 246.504 689.435 250.386 690.547C254.268 691.659 262.031 690.247 337.309 626.71C412.588 563.172 555.147 437.551 635.644 367.897C716.141 298.242 730.255 288.362 735.409 285.742C740.563 283.122 736.329 288.063 659.692 362.593C583.056 437.123 434.145 581.093 351.082 664.082C268.019 747.07 255.315 764.714 248.065 779.096C240.816 793.478 239.404 804.064 239.383 811.634C239.361 819.205 240.773 823.439 250.675 823.857C260.576 824.274 278.926 820.745 396.709 723.3C514.492 625.854 731.154 434.599 775.722 393.592C820.29 352.584 686.2 467.619 605.126 540.995C524.052 614.37 500.057 642.6 484.873 662.082C462.742 690.478 456.814 705.859 454.676 714.392C452.593 722.699 453.243 732.228 456.055 736.185C458.171 739.162 467.336 728.143 559.552 629.939C651.769 531.735 828.203 342.597 920.858 243.751C1013.51 144.905 1017.04 142.082 917.233 222.493C817.425 302.905 614.172 466.636 504.526 557.686C394.88 648.737 385 662.146 378.499 674.347C371.997 686.548 369.174 697.134 367.72 705.057C366.266 712.981 366.266 717.921 443.897 649.186C521.528 580.452 676.79 437.893 655.148 457.611C633.505 477.329 430.253 663.643 318.49 770.21C206.726 876.776 192.612 897.948 184.282 914.148C175.952 930.348 173.835 940.934 172.744 949.563C171.653 958.193 171.653 964.544 189.297 960.406C206.94 956.268 242.227 941.447 297.809 902.76C353.392 864.073 428.2 801.968 507.67 727.63C587.14 653.293 669.006 568.604 663.542 565.204C658.078 561.803 562.803 642.257 506.665 691.467C450.527 740.676 436.412 756.202 461.605 732.442C486.797 708.682 551.725 645.166 587.643 608.211C630.225 564.399 636.414 551.239 636.456 553.313C636.573 558.943 625.207 570.914 592.262 605.687C559.317 640.461 502.152 696.92 464.588 736.944C408.464 796.743 386.305 834.795 373.836 859.346C368.36 870.13 367.72 878.957 430.509 821.215C493.299 763.473 620.331 639.263 673.775 592.214C697.989 570.897 631.217 666.167 602.624 690.247C576.782 712.011 707.415 552.008 756.004 491.058C804.593 430.108 813.062 421.639 813.19 419.747C813.791 410.887 772.129 448.351 705.426 512.883C661.322 555.551 602.025 623.994 567.583 663.472C513.511 725.451 509.573 750 506.013 772.733C504.011 785.511 503.863 801.112 530.318 788.997C556.772 776.882 610.408 736.655 649.684 704.993C688.959 673.331 712.248 651.453 673.786 688.526C635.323 725.599 534.402 822.285 476.414 879.15C405.244 948.942 388.422 973.847 379.162 991.63C374.85 999.91 374.136 1008 373.409 1014.12C372.682 1020.23 372.682 1024.47 387.855 1021.71C434.335 1013.26 472.405 993.95 506.75 964.94C534.147 941.8 578.5 897.82 603.533 873.173C632.836 844.32 648.433 825.792 651.801 817.484C655.677 807.922 610.708 843.756 576.704 873.023C542.7 902.29 507.413 938.282 485.707 962.117C455.503 995.282 448.965 1011.68 447.896 1021.62C447.284 1027.31 447.533 1034.39 478.585 999.211C509.637 964.031 571.742 886.4 595.267 853.818C606.356 838.46 561.114 878.145 558.996 878.551C525.753 884.931 646.508 771.685 678.565 732.004C710.623 692.322 706.389 695.851 684.447 720.252C662.505 744.653 622.983 789.821 634.735 780.978C646.486 772.134 710.709 707.912 715.563 716.114C720.418 724.315 663.959 806.887 639.461 845.542C614.964 884.197 624.138 876.434 668.739 826.209C713.339 775.984 793.087 683.532 796.06 685.307C799.033 687.082 722.813 785.886 717.071 799.733C711.329 813.581 778.374 739.478 817.5 697.422C864.763 646.619 894.307 619.139 922.473 597.657C929.761 592.098 930.172 615.696 918.506 643.508C906.839 671.321 884.962 707.314 855.342 750.556C825.723 793.798 789.024 843.2 800.818 832.304C812.613 821.408 874.012 748.717 880.235 745.851C886.459 742.985 835.646 812.148 805.94 854.128C776.235 896.109 769.178 908.812 764.131 917.121C756.751 929.269 797.814 887.426 846.831 844.398C893.383 803.533 775.465 953.231 772.974 961.753C771.54 966.657 771.188 973.099 781.764 969.666C864.363 942.857 893.046 885.566 895.558 889.415C920.341 927.379 871.018 968.779 873.777 1001.66C875.027 1016.56 929.124 956.503 976.515 897.349C993.447 876.215 996.383 873.483 988.309 886.143C961.926 927.518 936.609 961.058 930.182 960.075C924.145 959.15 930.813 937.213 955.193 882.614C979.573 828.016 1026.15 736.27 998.628 732.057C971.104 727.844 868.067 813.944 815.692 856.181C763.318 898.419 764.73 894.184 781.336 869.772C797.942 845.36 829.7 800.899 837.239 783.287C844.777 765.676 827.134 776.262 782.052 812.062C736.971 847.862 664.985 908.556 625.785 940.881C586.584 973.206 582.35 975.323 584.05 971.473C585.75 967.624 593.513 957.743 628.918 920.895C664.322 884.047 727.133 820.531 757.373 790.986C787.613 761.442 783.378 767.793 749.439 808.469C715.499 849.145 651.983 923.954 622.438 961.433C592.893 998.911 599.245 996.794 626.512 977.354C653.779 957.915 701.769 921.216 726.139 905.134C750.508 889.052 749.802 894.698 741.675 908.898C733.549 923.098 718.023 945.682 718.846 938.967C719.669 932.251 737.313 895.553 772.867 836.421C808.421 777.289 861.351 696.834 890.736 652.918C923.716 603.628 935.069 586.975 936.577 572.678C937.139 567.346 915.501 578.142 863.03 614.958C810.56 651.774 722.343 717.408 681.132 743.456C639.921 769.504 648.39 753.978 683.099 708.928C717.809 663.879 778.502 589.776 794.948 567.834C805.07 554.33 718.75 640.739 704.849 647.529C678.884 660.212 793.986 551.281 776.353 558.627C758.72 565.974 650.742 657.014 591.589 705.678C532.435 754.341 525.378 757.87 524.565 756.159C508.675 722.707 577.944 698.802 581.537 696.289C582.121 695.881 575.25 700.128 515.529 744.29C455.809 788.452 342.185 873.141 286.828 912.181C231.47 951.221 237.822 942.046 273.91 901.327C309.999 860.608 375.633 788.623 404.151 757.186C432.669 725.748 422.083 737.04 389.106 765.441C356.129 793.841 301.081 839.008 275.899 860.512C250.717 882.016 257.069 878.487 264.928 874.905C272.788 871.323 281.962 867.794 327.621 839.511C373.281 811.228 455.146 758.298 498.731 732.795C542.315 707.292 545.138 710.821 539.535 725.695C533.932 740.569 519.817 766.681 481.141 819.301C442.464 871.922 379.653 950.258 344.826 995.907C309.999 1041.56 305.059 1052.14 302.161 1060.06C299.264 1067.99 298.558 1072.93 303.84 1075.83C309.123 1078.72 320.414 1079.43 354.814 1054.03C389.213 1028.64 446.378 977.119 467.357 954.108C478.446 941.946 407.37 972.243 331.856 1014.29C303.288 1030.19 293.04 1032.34 285.833 1027.09C278.626 1021.84 274.392 1008.43 304.321 959.176C334.251 909.924 398.473 825.236 438.262 775.963C478.05 726.689 491.459 715.397 442.261 743.456C393.062 771.514 280.85 839.265 223.044 867.11C165.238 894.954 165.238 880.839 168.413 865.805C171.589 850.771 177.941 835.245 208.031 788.431C238.121 741.617 291.757 663.986 309.86 629.287C327.964 594.588 308.909 605.174 275.45 628.977C241.992 652.779 194.707 689.478 168.584 709.441C142.461 729.405 138.933 731.522 135.351 734.025C131.769 736.527 128.24 739.35 156.063 709.752C183.886 680.153 243.168 618.048 275.825 584.996C308.481 551.944 312.715 549.827 310.31 551.206C307.904 552.586 298.729 557.526 263.656 584.066C228.583 610.606 167.89 658.596 173.674 643.444C179.459 628.292 253.562 548.544 290.677 511.343C327.793 474.142 325.675 481.905 321.056 491.55C310.701 513.171 289.405 555.174 269.452 607.163C261.513 627.848 260.79 637.98 264.65 648.363C268.511 658.746 277.685 669.332 285.587 675.138C293.489 680.945 299.841 681.65 335.93 672.486C372.019 663.323 437.652 644.268 516.631 616.102C595.609 587.937 685.944 551.239 734.597 533.039C783.25 514.84 787.484 516.251 782.961 535.68C778.438 555.109 765.029 592.514 740.831 635.072C716.632 677.63 682.051 724.208 678.704 740.44C675.358 756.672 704.293 741.146 748.84 706.33C793.387 671.513 852.669 617.877 884.62 589.188C916.57 560.499 919.393 558.382 899.675 572.464C879.957 586.547 837.613 616.894 821.092 624.411C804.572 631.928 815.158 615.696 853.075 578.046C890.992 540.396 955.92 481.82 944.907 487.99C933.893 494.159 844.97 566.85 792.457 607.473C739.943 648.096 726.534 654.447 723.508 650.309C711.973 634.535 765.884 578.677 812.912 517.77C830.779 494.629 834.533 485.797 824.364 483.552C814.195 481.306 789.495 485.541 712.901 513.129C636.307 540.717 508.568 591.53 433.589 619.471C358.61 647.411 340.261 650.94 331.867 638.996C323.473 627.052 325.59 599.528 346.794 552.532C367.998 505.537 408.225 439.903 430.007 403.269C451.788 366.635 453.906 360.989 448.998 360.55C444.09 360.112 432.092 365.052 394.859 389.122C357.626 413.192 295.521 456.242 293.521 449.484C291.522 442.726 351.51 384.856 385.235 353.279C418.961 321.703 424.607 318.174 425.045 318.121C425.484 318.067 420.543 321.596 364.01 365.052C307.476 408.509 199.498 491.786 135.757 539.626C56.8757 598.83 35.5316 610.35 30.8908 610.392C27.8966 610.42 31.1902 599.143 60.4997 561.964C89.8092 524.784 146.974 459.151 174.658 424.634C202.342 390.117 198.814 388.705 167.002 408.444C135.19 428.184 75.2026 469.116 48.1814 484.91C21.1602 500.704 28.9233 490.117 58.6819 458.552C88.4405 426.986 139.959 374.761 172.498 340.095C218.422 291.168 239.276 264.731 258.833 250.124C267.725 243.483 277.685 243.28 282.059 246.082C290.916 251.756 261.004 294.97 227.824 342.383C217.417 357.254 224.99 356.626 231.438 353.782C244.82 347.878 291.009 307.053 354.782 251.824C378.107 231.624 383.973 228.353 385.47 228.299C386.967 228.246 384.145 231.775 371.751 243.473C359.358 255.171 337.48 274.932 314.94 295.291" stroke="#F25D9C" stroke-width="60" stroke-linecap="round"/>
</svg>
